<svg width="41" height="40" viewBox="0 0 41 40" fill="none" xmlns="http://www.w3.org/2000/svg">
<rect width="41" height="40" rx="20" fill="#1C1C1C"/>
<path d="M20.44 27.24C19.3467 27.24 18.3267 27.06 17.38 26.7C16.4467 26.34 15.6333 25.8333 14.94 25.18C14.26 24.5267 13.7267 23.76 13.34 22.88C12.9667 22 12.78 21.04 12.78 20C12.78 18.96 12.9667 18 13.34 17.12C13.7267 16.24 14.2667 15.4733 14.96 14.82C15.6533 14.1667 16.4667 13.66 17.4 13.3C18.3333 12.94 19.3467 12.76 20.44 12.76C21.5467 12.76 22.56 12.94 23.48 13.3C24.4133 13.66 25.22 14.1667 25.9 14.82C26.5933 15.46 27.1333 16.22 27.52 17.1C27.9067 17.98 28.1 18.9467 28.1 20C28.1 21.04 27.9067 22.0067 27.52 22.9C27.1333 23.78 26.5933 24.5467 25.9 25.2C25.22 25.84 24.4133 26.34 23.48 26.7C22.56 27.06 21.5467 27.24 20.44 27.24ZM25.02 30.22C24.4733 30.22 23.9533 30.16 23.46 30.04C22.98 29.92 22.5 29.7267 22.02 29.46C21.5533 29.1933 21.06 28.8333 20.54 28.38C20.0333 27.9267 19.48 27.3667 18.88 26.7L22.28 25.84C22.64 26.3333 22.9733 26.7267 23.28 27.02C23.5867 27.3133 23.88 27.52 24.16 27.64C24.4533 27.76 24.76 27.82 25.08 27.82C25.9333 27.82 26.6933 27.4733 27.36 26.78L28.8 28.5C27.8533 29.6467 26.5933 30.22 25.02 30.22ZM20.44 24.48C21.0667 24.48 21.64 24.3733 22.16 24.16C22.6933 23.9467 23.16 23.64 23.56 23.24C23.96 22.84 24.2667 22.3667 24.48 21.82C24.7067 21.26 24.82 20.6533 24.82 20C24.82 19.3333 24.7067 18.7267 24.48 18.18C24.2667 17.6333 23.96 17.16 23.56 16.76C23.16 16.36 22.6933 16.0533 22.16 15.84C21.64 15.6267 21.0667 15.52 20.44 15.52C19.8133 15.52 19.2333 15.6267 18.7 15.84C18.1667 16.0533 17.7 16.36 17.3 16.76C16.9133 17.16 16.6067 17.6333 16.38 18.18C16.1667 18.7267 16.06 19.3333 16.06 20C16.06 20.6533 16.1667 21.26 16.38 21.82C16.6067 22.3667 16.9133 22.84 17.3 23.24C17.7 23.64 18.1667 23.9467 18.7 24.16C19.2333 24.3733 19.8133 24.48 20.44 24.48Z" fill="white"/>
</svg>
